# xmcd
#
# Track frame offsets:
#	150
#	13142
#	30232
#	48660
#	65252
#	84650
#	96912
#	114650
#	131365
#	143925
#	159640
#	177627
#
# Disc length: 2522
#
# Revision: 2
# Processed by: cddbd v1.5.1PL0 Copyright (c) Steve Scherf et al.
# Submitted via: CDex 1.40Beta3
# Normalized: r1:TRMNUM
#
DISCID=a309d80c
DTITLE=Various Artist - Songs For Spiritual Growth Living As Men Of God
DYEAR=1900
DGENRE=Country
TTITLE0=Man To Man
TTITLE1=Instruments Of Your Peace
TTITLE2=Lord Today
TTITLE3=Peace In Purity
TTITLE4=My Family My Home
TTITLE5=A Prayer For My Wife
TTITLE6=Sweet Liberty
TTITLE7=If You Have Tasted
TTITLE8=The Seed Will Grow
TTITLE9=Be A Father Through Me
TTITLE10=From This Moment On
TTITLE11=Brothers
EXTD=ID3G:   2
EXTT0=
EXTT1=
EXTT2=
EXTT3=
EXTT4=
EXTT5=
EXTT6=
EXTT7=
EXTT8=
EXTT9=
EXTT10=
EXTT11=
PLAYORDER=
